<svg xmlns="http://www.w3.org/2000/svg" width="50.28" height="50.28" viewBox="0 0 50.28 50.28">
  <path id="Icon_awesome-linkedin" data-name="Icon awesome-linkedin" d="M46.689,2.25H3.58A3.607,3.607,0,0,0,0,5.875v43.03A3.607,3.607,0,0,0,3.58,52.53H46.689a3.616,3.616,0,0,0,3.591-3.625V5.875A3.616,3.616,0,0,0,46.689,2.25ZM15.2,45.347H7.744v-24h7.463v24ZM11.47,18.075a4.321,4.321,0,1,1,4.321-4.321,4.323,4.323,0,0,1-4.321,4.321ZM43.131,45.347H35.679V33.675c0-2.783-.056-6.364-3.872-6.364-3.883,0-4.478,3.03-4.478,6.162V45.347H19.876v-24h7.149v3.277h.1a7.849,7.849,0,0,1,7.059-3.872c7.542,0,8.945,4.972,8.945,11.437Z" transform="translate(0 -2.25)" fill="#f2d129"/>
</svg>
