<svg xmlns="http://www.w3.org/2000/svg" width="50.293" height="50.282" viewBox="0 0 50.293 50.282">
  <path id="Icon_awesome-instagram" data-name="Icon awesome-instagram" d="M25.147,14.487A12.892,12.892,0,1,0,38.039,27.379,12.871,12.871,0,0,0,25.147,14.487Zm0,21.273a8.381,8.381,0,1,1,8.381-8.381,8.4,8.4,0,0,1-8.381,8.381Zm16.426-21.8a3.007,3.007,0,1,1-3.007-3.007A3,3,0,0,1,41.573,13.96Zm8.538,3.052C49.921,12.984,49,9.416,46.05,6.476s-6.508-3.86-10.535-4.062c-4.151-.236-16.594-.236-20.746,0-4.017.191-7.585,1.111-10.536,4.05S.373,12.972.171,17c-.236,4.151-.236,16.594,0,20.746.191,4.028,1.111,7.6,4.062,10.535s6.508,3.86,10.536,4.062c4.151.236,16.594.236,20.746,0,4.028-.191,7.6-1.111,10.535-4.062s3.86-6.508,4.062-10.535c.236-4.151.236-16.583,0-20.734ZM44.748,42.2a8.485,8.485,0,0,1-4.78,4.78c-3.31,1.313-11.164,1.01-14.822,1.01s-11.523.292-14.822-1.01a8.485,8.485,0,0,1-4.78-4.78c-1.313-3.31-1.01-11.164-1.01-14.822s-.292-11.523,1.01-14.822a8.485,8.485,0,0,1,4.78-4.78c3.31-1.313,11.164-1.01,14.822-1.01s11.523-.292,14.822,1.01a8.485,8.485,0,0,1,4.78,4.78c1.313,3.31,1.01,11.164,1.01,14.822S46.061,38.9,44.748,42.2Z" transform="translate(0.005 -2.237)" fill="#f2d129"/>
</svg>
