<svg xmlns="http://www.w3.org/2000/svg" width="381.451" height="138.52" viewBox="0 0 381.451 138.52">
  <path id="Intersection_1" data-name="Intersection 1" d="M-3699.419-97.18a46.323,46.323,0,0,1,46.619-46.26,46.244,46.244,0,0,1,46.26,46.26,46.324,46.324,0,0,1-46.26,46.62A46.4,46.4,0,0,1-3699.419-97.18Zm24.659,0a21.819,21.819,0,0,0,21.96,21.96,21.78,21.78,0,0,0,21.78-21.96,21.739,21.739,0,0,0-21.78-21.78A21.78,21.78,0,0,0-3674.76-97.18Zm-128.52,0a46.324,46.324,0,0,1,46.62-46.26,46.245,46.245,0,0,1,46.26,46.26,46.324,46.324,0,0,1-46.26,46.62A46.4,46.4,0,0,1-3803.28-97.18Zm24.66,0a21.819,21.819,0,0,0,21.96,21.96,21.78,21.78,0,0,0,21.78-21.96,21.74,21.74,0,0,0-21.78-21.78A21.78,21.78,0,0,0-3778.62-97.18Zm-76.861,46.62c-18.54,0-32.58-12.241-37.62-28.441l20.52-8.82c3.6,5.941,8.1,11.7,17.64,11.7a13.479,13.479,0,0,0,13.32-13.68c0-12.779-9.179-15.659-18.9-19.44-18.359-7.02-32.4-17.46-32.4-38.7,0-24.3,15.48-40.14,39.419-40.14,13.14,0,28.8,7.56,33.48,22.32l-23.219,11.16a12.453,12.453,0,0,0-11.881-7.56c-6.66,0-12.059,6.479-12.059,13.14,0,6.479,6.48,11.88,14.04,15.12,4.859,1.98,14.22,6.119,18,8.459,13.5,8.1,19.26,18.36,19.26,35.64,0,21.781-16.921,39.241-37.981,39.241ZM-3537.24-52v-51.3A15.671,15.671,0,0,0-3552.9-118.96a15.342,15.342,0,0,0-15.66,14.58V-52h-24.481v-90h22.32v3.42a32.408,32.408,0,0,1,17.821-4.859c25.38,0,40.139,14.4,40.139,39.779V-52Z" transform="translate(3893.711 188.58)" fill="none" stroke="#8CB9BD" stroke-width="1"/>
</svg>
