<svg xmlns="http://www.w3.org/2000/svg" width="1854" height="1400" viewBox="0 0 1854 1400">
  <g id="ups" transform="translate(-26 382)">
    <circle id="Ellipse_1" data-name="Ellipse 1" cx="17" cy="17" r="17" transform="translate(365 37)" fill="#8CB9BD" opacity="0.32"/>
    <circle id="Ellipse_16" data-name="Ellipse 16" cx="17" cy="17" r="17" transform="translate(1514 -6)" fill="#8CB9BD" opacity="0.32"/>
    <circle id="Ellipse_2" data-name="Ellipse 2" cx="4" cy="4" r="4" transform="translate(290 -179)" fill="#8CB9BD"/>
    <circle id="Ellipse_17" data-name="Ellipse 17" cx="4" cy="4" r="4" transform="translate(1516 98)" fill="#8CB9BD"/>
    <circle id="Ellipse_3" data-name="Ellipse 3" cx="4" cy="4" r="4" transform="translate(41 88)" fill="#8CB9BD"/>
    <circle id="Ellipse_13" data-name="Ellipse 13" cx="4" cy="4" r="4" transform="translate(582 217)" fill="#8CB9BD"/>
    <circle id="Ellipse_7" data-name="Ellipse 7" cx="24" cy="24" r="24" transform="translate(1686 -59)" fill="#8CB9BD"/>
    <circle id="Ellipse_14" data-name="Ellipse 14" cx="9" cy="9" r="9" transform="translate(1250 31)" fill="#8CB9BD" opacity="0.11"/>
    <circle id="Ellipse_18" data-name="Ellipse 18" cx="9" cy="9" r="9" transform="translate(1268 -82)" fill="#ECB159"/>
    <circle id="Ellipse_8" data-name="Ellipse 8" cx="9" cy="9" r="9" transform="translate(60 928)" fill="#8CB9BD"/>
    <circle id="Ellipse_9" data-name="Ellipse 9" cx="9" cy="9" r="9" transform="translate(1842 -282)" fill="#8CB9BD"/>
    <circle id="Ellipse_4" data-name="Ellipse 4" cx="7" cy="7" r="7" transform="translate(620 955)" fill="#8CB9BD" opacity="0.11"/>
    <circle id="Ellipse_5" data-name="Ellipse 5" cx="17" cy="17" r="17" transform="translate(109 58)" fill="#ECB159"/>
    <circle id="Ellipse_6" data-name="Ellipse 6" cx="17" cy="17" r="17" transform="translate(950 -382)" fill="#8CB9BD" opacity="0.11"/>
    <circle id="Ellipse_10" data-name="Ellipse 10" cx="17" cy="17" r="17" transform="translate(26 -124)" fill="#8CB9BD" opacity="0.11"/>
    <circle id="Ellipse_12" data-name="Ellipse 12" cx="7" cy="7" r="7" transform="translate(1611 -238)" fill="#ECB159"/>
    <circle id="Ellipse_15" data-name="Ellipse 15" cx="20" cy="20" r="20" transform="translate(1840 978)" fill="#8CB9BD" opacity="0.11"/>
  </g>
</svg>
